<?xml version="1.0" encoding="utf-8"?>
<!-- Generator: Adobe Illustrator 28.0.0, SVG Export Plug-In . SVG Version: 6.00 Build 0)  -->
<svg version="1.1" id="レイヤー_1" xmlns="http://www.w3.org/2000/svg" xmlns:xlink="http://www.w3.org/1999/xlink" x="0px"
	 y="0px" viewBox="0 0 33 33" style="enable-background:new 0 0 33 33;" xml:space="preserve">
<style type="text/css">
	.st0{fill:#4B4B4B;}
	.st1{fill-rule:evenodd;clip-rule:evenodd;fill:#4B4B4B;}
</style>
<g id="Layer1">
	<g id="Shape1">
		<path id="shapePath1" class="st0" d="M26.9,19.2l-2.1-1.5c0.1-0.4,0.1-0.8,0.1-1.2c0-0.4,0-0.8-0.1-1.2l2.1-1.5
			c0.5-0.3,0.7-0.9,0.4-1.4l-1.8-3.1c-0.3-0.5-0.9-0.7-1.4-0.4l-2.4,1c-0.6-0.5-1.3-0.9-2.1-1.2l-0.3-2.6c0-0.6-0.5-1.1-1.1-1.1
			h-3.5c-0.6,0-1.1,0.5-1.1,1.1l-0.3,2.6c-0.8,0.3-1.5,0.7-2.1,1.2l-2.4-1C8.4,8.6,7.8,8.8,7.5,9.3l-1.8,3.1
			c-0.3,0.5-0.1,1.1,0.4,1.4l2.1,1.5c-0.1,0.4-0.1,0.8-0.1,1.2c0,0.4,0,0.8,0.1,1.2l-2.1,1.5c-0.5,0.3-0.7,0.9-0.4,1.4l1.8,3.1
			c0.3,0.5,0.9,0.7,1.4,0.4l2.4-1c0.6,0.5,1.3,0.9,2.1,1.2l0.3,2.6c0,0.6,0.5,1.1,1.1,1.1h3.5c0.6,0,1.1-0.5,1.1-1.1l0.3-2.6
			c0.8-0.3,1.5-0.7,2.1-1.2l2.4,1c0.5,0.3,1.1,0.1,1.4-0.4l1.8-3.1C27.6,20.2,27.4,19.5,26.9,19.2 M16.5,21.2
			c-2.6,0-4.7-2.1-4.7-4.7c0-2.6,2.1-4.7,4.7-4.7c2.6,0,4.7,2.1,4.7,4.7C21.2,19.1,19.1,21.2,16.5,21.2z"/>
	</g>
	<g id="Shape2">
		<path id="shapePath2" class="st1" d="M19.6,16.5c0,1.7-1.4,3.1-3.1,3.1s-3.1-1.4-3.1-3.1s1.4-3.1,3.1-3.1S19.6,14.8,19.6,16.5z"/>
	</g>
</g>
</svg>
