<?xml version="1.0"?>
<svg version="1.1" xmlns="http://www.w3.org/2000/svg" xmlns:xlink="http://www.w3.org/1999/xlink" width="33" height="33">
    <desc iVinci="yes" version="4.6" gridStep="20" showGrid="no" snapToGrid="no" codePlatform="0"/>
    <g id="Layer1" name="Layer 1" opacity="1">
        <g id="Shape1">
            <desc shapeID="1" type="0" basicInfo-basicType="0" basicInfo-roundedRectRadius="12" basicInfo-polygonSides="6" basicInfo-starPoints="5" bounding="rect(-10.9156,-11.418,21.8311,22.836)" text="" font-familyName="" font-pixelSize="20" font-bold="0" font-underline="0" font-alignment="1" strokeStyle="0" markerStart="0" markerEnd="0" shadowEnabled="0" shadowOffsetX="0" shadowOffsetY="2" shadowBlur="4" shadowOpacity="160" blurEnabled="0" blurRadius="4" transform="matrix(1,0,0,1,16.499,16.5)" pers-center="0,0" pers-size="0,0" pers-start="0,0" pers-end="0,0" locked="0" mesh="" flag=""/>
            <path id="shapePath1" d="M26.8885,19.237 L24.8085,17.716 C24.8655,17.318 24.9065,16.913 24.9065,16.499 C24.9065,16.086 24.8655,15.682 24.8085,15.284 L26.8865,13.763 C27.3905,13.473 27.5645,12.83 27.2735,12.327 L25.5005,9.256 C25.2095,8.753 24.5665,8.581 24.0645,8.872 L21.7085,9.911 C21.0735,9.407 20.3645,8.995 19.5995,8.69 L19.3225,6.133 C19.3225,5.553 18.8535,5.082 18.2715,5.082 L14.7265,5.082 C14.1465,5.082 13.6735,5.553 13.6735,6.133 L13.3975,8.69 C12.6315,8.995 11.9225,9.407 11.2885,9.91 L8.93353,8.871 C8.42953,8.581 7.78853,8.753 7.49753,9.255 L5.72453,12.327 C5.43553,12.83 5.60753,13.472 6.10953,13.762 L8.18953,15.284 C8.13253,15.681 8.09153,16.085 8.09153,16.499 C8.09153,16.913 8.13253,17.317 8.18953,17.715 L6.10953,19.237 C5.60753,19.526 5.43353,20.169 5.72453,20.672 L7.49753,23.743 C7.78853,24.246 8.42953,24.419 8.93353,24.128 L11.2885,23.089 C11.9235,23.592 12.6325,24.004 13.3955,24.308 L13.6725,26.866 C13.6725,27.447 14.1435,27.918 14.7235,27.918 L18.2705,27.918 C18.8505,27.918 19.3215,27.447 19.3215,26.867 L19.5985,24.309 C20.3645,24.005 21.0735,23.593 21.7075,23.089 L24.0625,24.128 C24.5645,24.419 25.2075,24.247 25.4965,23.744 L27.2695,20.673 C27.5615,20.169 27.3905,19.527 26.8885,19.237 M16.4975,21.229 C13.8865,21.229 11.7685,19.112 11.7685,16.5 C11.7685,13.889 13.8855,11.771 16.4975,11.771 C19.1105,11.771 21.2275,13.888 21.2275,16.5 C21.2275,19.111 19.1105,21.229 16.4975,21.229 Z" style="stroke:none;fill-rule:nonzero;fill:#4b4b4b;fill-opacity:1;"/>
        </g>
        <g id="Shape2">
            <desc shapeID="2" type="0" basicInfo-basicType="0" basicInfo-roundedRectRadius="12" basicInfo-polygonSides="6" basicInfo-starPoints="5" bounding="rect(-3.109,-3.109,6.218,6.218)" text="" font-familyName="" font-pixelSize="20" font-bold="0" font-underline="0" font-alignment="1" strokeStyle="0" markerStart="0" markerEnd="0" shadowEnabled="0" shadowOffsetX="0" shadowOffsetY="2" shadowBlur="4" shadowOpacity="160" blurEnabled="0" blurRadius="4" transform="matrix(1,0,0,1,16.499,16.5)" pers-center="0,0" pers-size="0,0" pers-start="0,0" pers-end="0,0" locked="0" mesh="" flag=""/>
            <path id="shapePath2" d="M19.608,16.5 C19.608,18.2171 18.2161,19.609 16.499,19.609 C14.7819,19.609 13.39,18.2171 13.39,16.5 C13.39,14.7829 14.7819,13.391 16.499,13.391 C18.2161,13.391 19.608,14.7829 19.608,16.5 Z" style="stroke:none;fill-rule:evenodd;fill:#4b4b4b;fill-opacity:1;"/>
        </g>
    </g>
</svg>
